<svg width="300" height="300" viewBox="0 0 300 300" fill="none" xmlns="http://www.w3.org/2000/svg">
<path d="M149.5 69C184.57 69 213 97.4299 213 132.5C213 156.949 199.182 178.17 178.93 188.781L196 231H104L119.073 188.248C99.366 177.469 86 156.546 86 132.5C86 97.4299 114.43 69 149.5 69ZM174.745 145.9C173.791 145.438 172.691 145.373 171.688 145.721C170.686 146.068 169.863 146.8 169.4 147.755C169.046 148.485 168.592 149.267 168.099 150.022C163.53 156.973 155.958 162.115 148 162C147.947 162 147.894 161.999 147.841 161.999C140.048 162.062 132.702 157.001 128.384 150.124C127.908 149.364 127.474 148.576 127.142 147.845C126.703 146.879 125.898 146.127 124.904 145.755C123.911 145.382 122.81 145.419 121.845 145.858C120.879 146.297 120.127 147.102 119.755 148.096C119.382 149.089 119.419 150.19 119.858 151.155C120.383 152.306 120.971 153.356 121.6 154.364C127.035 163.078 136.764 170.033 147.78 169.999C147.853 170 147.927 170 148 170C159.236 170.09 169.086 163.114 174.796 154.398C175.442 153.407 176.05 152.375 176.6 151.245C177.062 150.291 177.127 149.191 176.779 148.188C176.432 147.186 175.7 146.363 174.745 145.9ZM125 113C120.029 113 116 117.029 116 122C116 126.971 120.029 131 125 131C129.971 131 134 126.971 134 122C134 117.029 129.971 113 125 113ZM175 113C170.029 113 166 117.029 166 122C166 126.971 170.029 131 175 131C179.971 131 184 126.971 184 122C184 117.029 179.971 113 175 113Z" fill="white"/>
</svg>
