<svg width="300" height="300" viewBox="0 0 300 300" fill="none" xmlns="http://www.w3.org/2000/svg">
<path d="M99.5877 111.668C121.111 96.4351 137.168 53.5423 142.507 34C147.631 43.8547 159.418 68.0738 165.568 86.1128C171.717 104.152 183.504 123.694 188.629 131.21V91.6247C195.889 94.7983 212.971 104.452 223.22 117.681C236.032 134.217 245 143.738 245 194.347C245 234.835 185.212 258.319 155.319 265C163.219 259.822 180.942 243.453 188.629 219.401C196.316 195.349 172.614 184.325 159.803 181.82V215.894C155.746 213.054 145.838 205.171 138.663 196.351C131.489 187.532 123.717 177.644 120.727 173.803C118.165 177.978 113.168 190.539 113.681 207.375C114.193 224.212 124.144 239.779 129.055 245.458C108.556 242.117 65.5087 227.218 57.3093 194.347C47.06 153.258 72.6832 130.709 99.5877 111.668Z" fill="white"/>
</svg>
