<svg width="300" height="300" viewBox="0 0 300 300" fill="none" xmlns="http://www.w3.org/2000/svg">
<path d="M245 231.992L232.321 245H68.4624C64.8861 242.665 57.2459 235.294 55.2953 224.488C52.8569 210.98 66.024 183.964 76.2652 150.944C86.5063 117.925 101.136 76.4 115.767 66.8944C130.397 57.3888 160.145 52.3858 167.46 56.3882C174.775 60.3906 180.627 84.4048 178.189 90.9086C175.75 97.4125 170.874 101.415 145.027 109.92C124.35 116.724 108.126 109.42 102.599 104.917C103.25 107.752 105.818 114.323 110.89 117.925C115.962 121.527 121.456 123.094 123.569 123.428L120.643 196.471H134.298V214.982L146.49 231.992H156.731C154.78 228.991 150.002 220.886 146.49 212.481C142.101 201.974 150.392 162.951 192.331 162.951C225.883 162.951 241.424 181.629 245 190.968V231.992Z" fill="white"/>
</svg>
