<svg width="300" height="300" viewBox="0 0 300 300" fill="none" xmlns="http://www.w3.org/2000/svg">
<path d="M146.699 137.964C126.079 137.964 77.0946 122.471 56.2703 113.476C44.4747 108.57 117.866 62 150.631 62C183.397 62 244.559 93.485 244.559 100.981C244.559 106.979 223.007 121.139 212.23 127.469V163.952H200.872V132.467C191.406 134.299 167.32 137.964 146.699 137.964Z" fill="white"/>
<path d="M76.3664 169.949C78.8129 155.955 81.7545 141.462 82.9195 135.965C96.0258 138.131 117.631 145.946 134.908 146.96C152.184 147.973 178.741 149.292 185.585 146.96V171.948C183.838 171.948 179.556 173.347 176.411 178.944C172.479 185.941 173.353 208.43 173.353 213.928C173.353 219.425 162.431 227.421 151.946 227.421C143.558 227.421 96.3171 212.095 73.7451 204.432C73.5995 198.768 73.9199 183.942 76.3664 169.949Z" fill="white"/>
<path d="M189.081 195.437C190.828 176.246 201.168 172.448 206.119 172.947C211.507 172.448 222.282 176.246 222.282 195.437C222.282 219.425 227.088 236.917 208.303 236.917C183.838 238.416 186.896 219.425 189.081 195.437Z" fill="white"/>
<path d="M232.768 187.44L224.03 127.969H237.136L245 187.44H232.768Z" fill="white"/>
</svg>
