<svg width="300" height="300" viewBox="0 0 300 300" fill="none" xmlns="http://www.w3.org/2000/svg">
<path d="M201.21 157.88C194.155 153.391 183.639 154.085 177.728 159.445L166.662 169.469V12.6727C166.662 5.67544 159.206 0 149.997 0C140.789 0 133.332 5.67544 133.332 12.6727V169.475L122.274 159.451C116.361 154.098 105.861 153.385 98.7912 157.887C91.7429 162.393 90.8226 170.385 96.7417 175.744L137.239 212.441C137.373 212.559 137.543 212.644 137.684 212.763C138.174 213.175 138.709 213.559 139.266 213.909C139.593 214.124 139.905 214.338 140.247 214.53C140.863 214.868 141.517 215.157 142.199 215.428C142.534 215.569 142.853 215.722 143.202 215.845C143.981 216.111 144.806 216.303 145.637 216.473C145.927 216.529 146.195 216.619 146.492 216.67C147.628 216.856 148.803 216.964 150.005 216.964C151.217 216.964 152.39 216.857 153.526 216.67C153.815 216.619 154.089 216.529 154.379 216.473C155.21 216.297 156.035 216.111 156.815 215.845C157.164 215.721 157.484 215.568 157.817 215.428C158.493 215.157 159.154 214.863 159.77 214.53C160.111 214.338 160.424 214.123 160.75 213.909C161.307 213.553 161.834 213.175 162.324 212.763C162.465 212.644 162.636 212.565 162.769 212.441L203.267 175.744C209.187 170.379 208.265 162.388 201.21 157.88Z" fill="white"/>
<path d="M267.59 300H32.4179C14.5418 300 0 288.942 0 275.355V96.5158C0 82.9284 14.5418 71.8703 32.4179 71.8703H92.8338C102.035 71.8703 109.499 77.5457 109.499 84.5429C109.499 91.5402 102.035 97.2218 92.8338 97.2218H33.3314V274.655H266.669V97.2156H208.511C199.303 97.2156 191.846 91.5402 191.846 84.5367C191.846 77.5395 199.303 71.864 208.511 71.864H267.582C285.458 71.864 300 82.9221 300 96.5096V275.353C300.007 288.942 285.466 300 267.59 300Z" fill="white"/>
</svg>
