<svg width="290" height="290" viewBox="0 0 290 290" fill="none" xmlns="http://www.w3.org/2000/svg">
<path d="M0 68.15C0 30.5118 30.5118 0 68.15 0H221.85C259.488 0 290 30.5118 290 68.15V221.85C290 259.488 259.488 290 221.85 290H68.15C30.5118 290 0 259.488 0 221.85V68.15Z" fill="#FFFDEB"/>
<path d="M221.85 278.4V290H68.15L68.15 278.4H221.85ZM278.4 221.85V68.15C278.4 36.9183 253.082 11.6 221.85 11.6H68.15C36.9183 11.6 11.6 36.9183 11.6 68.15V221.85C11.6 253.082 36.9183 278.4 68.15 278.4L68.15 290C30.5118 290 0 259.488 0 221.85V68.15C2.2248e-06 30.8058 30.037 0.477235 67.2692 0.00566406L68.15 0H221.85L222.731 0.00566406C259.963 0.477237 290 30.8058 290 68.15V221.85L289.994 222.731C289.523 259.963 259.194 290 221.85 290V278.4C253.082 278.4 278.4 253.082 278.4 221.85Z" fill="#F6B23B"/>
<path d="M144.275 43.5C195.127 43.5 236.35 84.7234 236.35 135.575C236.35 171.026 216.313 201.796 186.948 217.183L211.7 278.4H78.3L100.156 216.41C71.5807 200.78 52.2 170.442 52.2 135.575C52.2 84.7234 93.4234 43.5 144.275 43.5Z" fill="#FEB71C"/>
<path d="M176.448 151.845C177.901 151.341 179.496 151.435 180.88 152.106C182.264 152.777 183.326 153.97 183.83 155.423C184.334 156.877 184.24 158.471 183.569 159.855C182.772 161.494 181.891 162.991 180.954 164.428C172.675 177.065 158.392 187.181 142.1 187.05C141.994 187.05 141.887 187.049 141.781 187.049C125.807 187.098 111.701 177.013 103.819 164.378C102.907 162.916 102.056 161.393 101.295 159.725C100.658 158.325 100.604 156.729 101.144 155.289C101.685 153.849 102.774 152.681 104.175 152.045C105.575 151.408 107.171 151.355 108.611 151.895C110.051 152.435 111.219 153.525 111.855 154.925C112.338 155.986 112.967 157.127 113.656 158.23C119.917 168.202 130.569 175.541 141.869 175.449C141.946 175.449 142.023 175.45 142.1 175.45C153.638 175.617 164.618 168.16 171.243 158.083C171.959 156.987 172.617 155.854 173.13 154.795C173.801 153.411 174.995 152.349 176.448 151.845Z" fill="white"/>
<path d="M121.8 117.45C121.8 124.657 115.957 130.5 108.75 130.5C101.543 130.5 95.7 124.657 95.7 117.45C95.7 110.243 101.543 104.4 108.75 104.4C115.957 104.4 121.8 110.243 121.8 117.45Z" fill="white"/>
<path d="M194.3 117.45C194.3 124.657 188.457 130.5 181.25 130.5C174.043 130.5 168.2 124.657 168.2 117.45C168.2 110.243 174.043 104.4 181.25 104.4C188.457 104.4 194.3 110.243 194.3 117.45Z" fill="white"/>
</svg>
