<svg width="300" height="300" viewBox="0 0 300 300" fill="none" xmlns="http://www.w3.org/2000/svg">
<rect x="5" y="5" width="290" height="290" rx="65" fill="url(#paint0_linear_57_858)" stroke="#EF3A84" stroke-width="10"/>
<path d="M110.802 112.5C127.602 97.3 140.136 54.5 144.302 35C148.303 44.8333 157.503 69 162.303 87C167.103 105 176.303 124.5 180.303 132V92.5C185.969 95.6667 199.303 105.3 207.303 118.5C217.303 135 224.303 144.5 224.303 195C224.303 235.4 177.636 258.833 154.303 265.5C160.469 260.333 174.303 244 180.303 220C186.303 196 167.803 185 157.803 182.5V216.5C154.636 213.667 146.903 205.8 141.303 197C135.703 188.2 129.636 178.333 127.303 174.5C125.303 178.667 121.403 191.2 121.803 208C122.203 224.8 129.969 240.333 133.803 246C117.803 242.667 84.2025 227.8 77.8025 195C69.8025 154 89.8025 131.5 110.802 112.5Z" fill="white"/>
<defs>
<linearGradient id="paint0_linear_57_858" x1="150" y1="0" x2="150" y2="300" gradientUnits="userSpaceOnUse">
<stop stop-color="#FF8CB0"/>
<stop offset="1" stop-color="#FF64A2"/>
</linearGradient>
</defs>
</svg>
