<svg width="300" height="300" viewBox="0 0 300 300" fill="none" xmlns="http://www.w3.org/2000/svg">
<rect x="5" y="5" width="290" height="290" rx="65" fill="url(#paint0_linear_57_855)" stroke="#E66E00" stroke-width="10"/>
<path d="M247.803 231.887L234.803 244.887H66.8027C63.1361 242.554 55.3027 235.187 53.3027 224.387C50.8027 210.887 64.3027 183.887 74.8027 150.887C85.3027 117.887 100.303 76.3874 115.303 66.8874C130.303 57.3874 160.803 52.3874 168.303 56.3874C175.803 60.3874 181.803 84.3874 179.303 90.8874C176.803 97.3874 171.803 101.387 145.303 109.887C124.103 116.687 107.469 109.387 101.803 104.887C102.469 107.721 105.103 114.287 110.303 117.887C115.503 121.487 121.136 123.054 123.303 123.387L120.303 196.387H134.303V214.887L146.803 231.887H157.303C155.303 228.887 150.403 220.787 146.803 212.387C142.303 201.887 150.803 162.887 193.803 162.887C228.203 162.887 244.136 181.554 247.803 190.887V231.887Z" fill="white"/>
<defs>
<linearGradient id="paint0_linear_57_855" x1="150" y1="0" x2="150" y2="300" gradientUnits="userSpaceOnUse">
<stop stop-color="#FCB20E"/>
<stop offset="1" stop-color="#FD9720"/>
</linearGradient>
</defs>
</svg>
