<svg width="300" height="300" viewBox="0 0 300 300" fill="none" xmlns="http://www.w3.org/2000/svg">
<rect x="5" y="5" width="290" height="290" rx="65" fill="url(#paint0_linear_57_856)" stroke="#00AA77" stroke-width="10"/>
<path d="M145.949 138C122.349 138 66.2872 122.5 42.4539 113.5C28.9539 108.592 112.949 62 150.449 62C187.949 62 257.949 93.5 257.949 101C257.949 107 233.283 121.167 220.949 127.5V164H207.949V132.5C197.116 134.333 169.549 138 145.949 138Z" fill="white"/>
<path d="M65.4537 170C68.2537 156 71.6204 141.5 72.9537 136C87.9538 138.167 112.681 145.986 132.454 147C152.227 148.014 182.621 149.333 190.454 147V172C188.454 172 183.554 173.4 179.954 179C175.454 186 176.454 208.5 176.454 214C176.454 219.5 163.954 227.5 151.954 227.5C142.354 227.5 88.2872 212.167 62.4537 204.5C62.2871 198.833 62.6537 184 65.4537 170Z" fill="white"/>
<path d="M194.455 195.5C196.455 176.3 208.288 172.5 213.955 173C220.121 172.5 232.454 176.3 232.454 195.5C232.454 219.5 237.954 237 216.454 237C188.454 238.5 191.955 219.5 194.455 195.5Z" fill="white"/>
<path d="M244.454 187.5L234.454 128H249.454L258.454 187.5H244.454Z" fill="white"/>
<defs>
<linearGradient id="paint0_linear_57_856" x1="150" y1="0" x2="150" y2="300" gradientUnits="userSpaceOnUse">
<stop stop-color="#1FD5A1"/>
<stop offset="1" stop-color="#01BE7D"/>
</linearGradient>
</defs>
</svg>
